<?xml version="1.0" encoding="UTF-8" standalone="no"?>
<svg width="33px" height="43px" viewBox="0 0 33 43" version="1.1" xmlns="http://www.w3.org/2000/svg" xmlns:xlink="http://www.w3.org/1999/xlink" xmlns:sketch="http://www.bohemiancoding.com/sketch/ns">
    <!-- Generator: Sketch 3.3.3 (12072) - http://www.bohemiancoding.com/sketch -->
    <title>Abril</title>
    <desc>Created with Sketch.</desc>
    <defs></defs>
    <g id="4---Interface" stroke="none" stroke-width="1" fill="none" fill-rule="evenodd" sketch:type="MSPage">
        <g id="1---Home-Desktop-Copy" sketch:type="MSArtboardGroup" transform="translate(-740.000000, -3510.000000)">
            <g id="Call-to-actio-e-clientes" sketch:type="MSLayerGroup" transform="translate(245.000000, 3355.000000)">
                <g id="Clientes" sketch:type="MSShapeGroup">
                    <g id="Abril" transform="translate(495.000000, 155.000000)">
                        <path d="M0.224244094,0.199530488 L32.8321417,0.199530488 L32.8321417,42.7611402 L0.224244094,42.7611402 L0.224244094,0.199530488 Z M14.4082677,23.2338963 C14.3188819,25.6534329 13.7508661,28.0651037 12.3817559,30.4841159 L1.35975591,30.4841159 L1.35975591,1.50919512 L31.534748,1.50919512 L31.534748,30.4841159 L20.5564016,30.4841159 C19.4619449,28.2305488 18.7837559,25.852439 18.6650079,23.1022744 C18.5808189,21.0671159 18.7964882,19.3426585 20.1047953,18.014378 C21.2907165,19.7385732 23.3380157,20.4842561 26.2635827,20.2668963 C26.4252047,19.1174329 26.3560866,17.975311 25.5477165,16.8258476 C26.7637795,16.6394268 27.9876378,16.025628 29.2120157,14.7828232 C28.619315,13.477878 27.5952756,12.5148354 25.6092992,12.2660122 C26.9254016,10.8053232 27.1951181,8.92590854 26.8331575,6.71979878 C24.4467638,6.37003049 21.6214961,8.07980488 21.9444803,10.8831951 C21.7680472,10.1996524 21.4827402,9.68732317 21.0365906,9.43063415 C21.4138819,7.86952439 21.205748,5.7724878 20.6361732,4.21085366 C18.8040236,4.56062195 18.0728268,5.1117561 17.0334567,6.58791463 C16.948748,5.85770122 16.579252,4.87132317 15.7864724,4.14110976 C14.7395669,4.53702439 14.0390315,5.50845732 13.6924016,6.25387805 C13.1690787,4.6925061 11.8605118,3.58945122 10.2900236,3.08446341 C8.62677165,4.51368902 8.69640945,6.30054878 9.30470079,8.43639024 C7.92649606,8.24236585 6.2944252,8.04047561 4.78577953,8.63854268 C5.0245748,9.98229268 6.03276378,11.6060671 7.14151181,12.600311 C6.17879528,12.6852622 5.22491339,12.9028841 4.26219685,14.0526098 C4.70081102,15.2178049 5.65599213,16.0334939 7.14151181,16.4996768 C6.00989764,17.4936585 5.35535433,18.6200488 5.17866142,19.9328598 C8.05719685,20.9895061 11.814,20.1580854 12.9687402,17.8822317 C14.4545197,19.6454939 14.4776457,21.4708963 14.4082677,23.2338963 L14.4082677,23.2338963 Z M10.3666772,4.90252439 C9.69706299,6.89861585 10.2206457,8.63067683 11.9371654,10.0992317 C12.8149134,7.90020122 12.5758583,6.06745732 10.3666772,4.90252439 L10.3666772,4.90252439 Z M25.5937087,7.72190854 C25.8707008,9.71039634 24.8388661,11.3651098 22.8219685,12.8326159 C22.3911496,10.6348963 23.1535276,8.88710366 25.5937087,7.72190854 L25.5937087,7.72190854 Z M19.5042992,5.87317073 C20.1819685,7.86165854 19.6583858,9.59398171 17.9340709,11.069878 C17.064378,8.86376829 17.2951181,7.0307622 19.5042992,5.87317073 L19.5042992,5.87317073 Z M14.5548189,11.9167683 C13.5229843,9.92015244 13.7999764,7.62882927 15.5245512,6.16079878 C16.5945827,8.05594512 16.764,10.7515732 14.5548189,11.9167683 L14.5548189,11.9167683 Z M12.1219134,13.2138476 C10.9749685,10.393939 9.19686614,9.28328049 6.79488189,9.81160366 C7.73395276,12.2969512 9.72018898,13.0974329 12.1219134,13.2138476 L12.1219134,13.2138476 Z M10.852063,14.9071037 C9.56610236,13.4854817 8.01146457,13.252128 6.19464567,14.2156951 C7.45670079,15.9480183 9.01185827,16.1732439 10.852063,14.9071037 L10.852063,14.9071037 Z M7.38784252,19.008622 C7.97274803,17.0120061 9.21999213,15.885878 11.9296299,16.6782317 C11.1597165,18.5193659 9.85894488,19.5369451 7.38784252,19.008622 L7.38784252,19.008622 Z M16.5483307,12.273878 C14.3157638,12.5612439 13.1152913,13.8273841 12.7761969,15.9016098 C15.4551732,15.4120915 16.7102126,14.2004878 16.5483307,12.273878 L16.5483307,12.273878 Z M18.2344488,13.8900488 C16.7562047,14.7673537 16.3789134,16.4372744 16.9027559,18.6357805 C19.1425984,17.4703232 19.3735984,15.885878 18.2344488,13.8900488 L18.2344488,13.8900488 Z M20.2820079,15.4508963 C18.8734016,13.3223963 18.7733622,11.5982012 20.6821654,10.3005976 C22.0528346,11.9789085 21.6214961,13.664561 20.2820079,15.4508963 L20.2820079,15.4508963 Z M22.0528346,14.9071037 C23.6152677,13.0581037 25.4011654,12.8176707 27.3871417,14.1847561 C26.1404173,15.8237378 24.3617953,16.0646951 22.0528346,14.9071037 L22.0528346,14.9071037 Z M21.0132047,16.7558415 C22.9225276,15.9016098 24.731811,16.9343963 25.2239528,19.0705 C22.9991811,19.3117195 21.544063,18.5891098 21.0132047,16.7558415 L21.0132047,16.7558415 Z" id="Fill-1" fill="#7D7D7D"></path>
                        <path d="M5.91791339,37.745872 L7.13085827,34.4516524 L8.36251181,37.745872 L5.91791339,37.745872 M8.10734646,32.3797866 L6.19776378,32.3797866 L2.70833858,41.2605976 L4.62415748,41.2605976 L5.36470866,39.2398598 L8.94715748,39.2398598 L9.7246063,41.2605976 L11.6962913,41.2605976 L8.10734646,32.3797866" id="Fill-2" fill="#FFFFFF"></path>
                        <path d="M15.7144961,39.917372 C15.2231339,39.917372 14.825315,39.6918841 14.5264961,39.2335671 C14.3152441,38.913689 14.2092283,38.4239085 14.2092283,37.7584573 C14.2092283,37.1121463 14.3461654,36.6289207 14.6197795,36.3150732 C14.8933937,35.9954573 15.2358661,35.8381402 15.6458976,35.8381402 C16.0689213,35.8381402 16.4111339,36.0014878 16.6787717,36.3276585 C16.9458898,36.6477988 17.0825669,37.1813659 17.0825669,37.9155122 C17.0825669,38.6063963 16.952126,39.1142683 16.684748,39.4344085 C16.4176299,39.7542866 16.094126,39.917372 15.7144961,39.917372 M14.2217008,32.2355793 L12.5049213,32.2355793 L12.5049213,41.116128 L14.1037323,41.116128 L14.1037323,40.1690793 C14.358378,40.5267134 14.6696693,40.79625 15.0305906,40.9845061 C15.3907323,41.1664695 15.7581496,41.2605976 16.1310236,41.2605976 C16.8840472,41.2605976 17.5248189,40.9593354 18.0535984,40.3696585 C18.575622,39.7731646 18.8432598,38.9260122 18.8432598,37.8339695 C18.8432598,36.7670976 18.5818583,35.9508841 18.0655512,35.3861159 C17.5495039,34.8213476 16.8962598,34.5387012 16.1060787,34.5387012 C15.3785197,34.5387012 14.7507402,34.8341951 14.2217008,35.4301646 L14.2217008,32.2355793" id="Fill-3" fill="#FFFFFF"></path>
                        <path d="M22.6930866,34.6831707 C22.4197323,34.6831707 22.1708031,34.7523902 21.9527953,34.8903049 C21.7353071,35.0219268 21.4866378,35.311128 21.2187402,35.7440122 L21.2187402,34.8276402 L19.6204488,34.8276402 L19.6204488,41.2605976 L21.3369685,41.2605976 L21.3369685,39.2713232 C21.3369685,38.1790183 21.387378,37.4574573 21.4804016,37.118439 C21.5799213,36.773128 21.710622,36.5350549 21.8784803,36.4026463 C22.0463386,36.2712866 22.245378,36.208622 22.487811,36.208622 C22.7367402,36.208622 23.004378,36.30275 23.2904646,36.4844512 L23.8252205,35.0035732 C23.4648189,34.7904085 23.0849291,34.6831707 22.6930866,34.6831707" id="Fill-4" fill="#FFFFFF"></path>
                        <path d="M24.565252,41.2605976 L26.2822913,41.2605976 L26.2822913,34.8276402 L24.565252,34.8276402 L24.565252,41.2605976 Z M24.565252,33.9553171 L26.2822913,33.9553171 L26.2822913,32.3795244 L24.565252,32.3795244 L24.565252,33.9553171 Z" id="Fill-5" fill="#FFFFFF"></path>
                        <path d="M27.855378,32.3797866 L29.5724173,32.3797866 L29.5724173,41.2608598 L27.855378,41.2608598 L27.855378,32.3797866 Z" id="Fill-6" fill="#FFFFFF"></path>
                    </g>
                </g>
            </g>
        </g>
    </g>
</svg>