<?xml version="1.0" encoding="UTF-8" standalone="no"?>
<svg width="74px" height="17px" viewBox="0 0 74 17" version="1.1" xmlns="http://www.w3.org/2000/svg" xmlns:xlink="http://www.w3.org/1999/xlink" xmlns:sketch="http://www.bohemiancoding.com/sketch/ns">
    <!-- Generator: Sketch 3.3.3 (12072) - http://www.bohemiancoding.com/sketch -->
    <title>FIESC logo</title>
    <desc>Created with Sketch.</desc>
    <defs></defs>
    <g id="4---Interface" stroke="none" stroke-width="1" fill="none" fill-rule="evenodd" sketch:type="MSPage">
        <g id="1---Home-Desktop-Copy" sketch:type="MSArtboardGroup" transform="translate(-926.000000, -3523.000000)" fill="#7D7D7D">
            <g id="Call-to-actio-e-clientes" sketch:type="MSLayerGroup" transform="translate(245.000000, 3355.000000)">
                <g id="Clientes" sketch:type="MSShapeGroup">
                    <g id="FIESC-logo" transform="translate(681.000000, 168.060039)">
                        <path d="M42.5448287,11.2693248 C43.1715079,11.2693248 43.7983799,11.2792598 44.4246732,11.2644055 C44.6735315,11.2586181 44.7814665,11.3283563 44.7455846,11.5884035 C44.728126,11.7141831 44.7422087,11.8451713 44.7488642,11.9734587 C44.8023012,13.0208819 45.4547343,13.6668524 46.5023504,13.6938602 C47.3623583,13.7159488 48.1538819,13.4880217 48.8494311,12.9745827 C49.7753189,12.2908012 49.677126,11.1974646 48.6462933,10.7171102 C47.9329961,10.3848169 47.1844921,10.145315 46.4244134,9.94728937 C45.586687,9.72910433 44.7639114,9.46809252 43.9421969,9.19521654 C41.9923248,8.54779921 41.4655748,7.17502756 41.7164587,5.36733268 C41.9990768,3.33219291 43.1274272,1.92701181 45.001002,1.12835039 C47.6743957,-0.0112854331 50.3987185,-0.19426378 53.1584409,0.802712598 C55.3958504,1.61092323 55.446876,3.5373563 55.0702126,5.14403543 C55.0229488,5.34524409 54.8993878,5.38295866 54.7179528,5.3806437 C53.4166555,5.36414961 52.1153583,5.35334646 50.8139646,5.34138583 C50.6671575,5.34003543 50.5552677,5.35382874 50.5331791,5.1291811 C50.3997795,3.77213189 49.8302028,3.28975197 48.4906122,3.3881378 C47.9506476,3.4277815 47.4576575,3.62223819 47.0320906,3.95848622 C46.2785709,4.55400984 46.315128,5.39337598 47.1389646,5.8822185 C48.0585827,6.42806693 49.093563,6.67586417 50.1169685,6.94372441 C50.5817933,7.0653563 51.054624,7.16084843 51.5124075,7.30437598 C53.8587165,8.03985827 54.8561752,9.96445866 54.0412126,12.2864606 C53.3470138,14.2640157 51.9255315,15.5572106 49.958876,16.2112835 C47.7310157,16.9524567 45.4532874,16.9539035 43.1581004,16.5272756 C40.947313,16.1162736 40.1188465,14.129748 40.1501949,12.5602047 C40.1757559,11.2816713 40.1812539,11.2815748 41.436252,11.2790669 C41.8057776,11.2782953 42.1753031,11.2789705 42.5448287,11.2789705 L42.5448287,11.2693248" id="Fill-1"></path>
                        <path d="M30.0195413,16.4545472 C28.1388287,16.4546437 26.2582126,16.4480846 24.3775965,16.4601417 C24.0155945,16.4625531 23.8826772,16.4299508 23.975372,15.9901083 C25.0335984,10.9694409 26.0684823,5.94375787 27.097,0.916917323 C27.1651949,0.583659449 27.2932894,0.489614173 27.6322382,0.49086811 C31.425687,0.504372047 35.2191358,0.504275591 39.0125846,0.491832677 C39.3963858,0.49057874 39.5222618,0.559352362 39.4104685,0.967267717 C39.215626,1.67796063 39.0365059,2.39685236 38.9200827,3.12336417 C38.8515984,3.55105315 38.6548268,3.60960236 38.280189,3.60699803 C36.0782756,3.59127559 33.8758799,3.61413583 31.6739665,3.58654921 C31.2545728,3.58124409 31.1268642,3.72785827 31.0563543,4.09825197 C30.9186142,4.82235236 30.7610039,5.54433071 30.5698268,6.25589173 C30.4645925,6.64808465 30.5155217,6.76238583 30.9584508,6.7568878 C33.0156791,6.73113386 35.0734862,6.75573031 37.1307146,6.73624606 C37.5049665,6.73267717 37.5976614,6.8181378 37.5117185,7.18255118 C37.3169724,8.00937795 37.1311969,8.83967717 36.9872835,9.67634252 C36.9322067,9.99715748 36.7950453,10.0433602 36.5154173,10.0421063 C34.425876,10.0324606 32.3361417,10.0449035 30.2466004,10.0289882 C29.895498,10.0262874 29.7434823,10.1095295 29.6808819,10.4798268 C29.5609862,11.1899409 29.3724134,11.8884803 29.215189,12.5925177 C29.0922067,13.1436713 29.0940394,13.1443465 29.6763484,13.14425 C31.9107677,13.1436713 34.145187,13.1561142 36.3792205,13.1319035 C36.8517618,13.1267913 36.9042343,13.2620236 36.796878,13.6803563 C36.5937402,14.4719764 36.4277382,15.2744961 36.2851752,16.0794272 C36.2298091,16.3923327 36.095252,16.4612992 35.8061713,16.4598524 C33.8773268,16.4497244 31.9483858,16.4545472 30.0195413,16.4545472" id="Fill-2"></path>
                        <path d="M70.9551831,5.18203937 C70.2479626,5.18203937 69.5406457,5.18155709 68.8334252,5.18232874 C68.6474567,5.18261811 68.5158898,5.1962185 68.5265,4.90665551 C68.5665295,3.81389764 67.9877894,3.17766929 66.8532657,3.00250394 C65.6758189,2.82077953 64.6745984,3.12365354 63.8366791,4.00603937 C62.7524094,5.1478937 62.2624094,6.56001969 61.9346496,8.04429528 C61.6989094,9.11158858 61.5506555,10.1917106 61.6903248,11.2945 C61.9754508,13.5437736 63.5181791,13.9419469 65.4463484,13.2821831 C66.3311457,12.979502 66.9970827,12.3131791 67.2325335,11.3399311 C67.2817264,11.1368898 67.3844528,11.0944488 67.569939,11.0946417 C68.9363445,11.096185 70.3028465,11.0958957 71.6690591,11.0815236 C71.9345079,11.0786299 72.0072362,11.1806811 71.9814823,11.4223051 C71.9132874,12.0601732 71.6735925,12.6374665 71.3177638,13.1576575 C69.9109429,15.2145965 67.9254783,16.3465157 65.4858957,16.6783268 C64.0008484,16.8803071 62.5098209,16.8499232 61.0207224,16.6167874 C58.755437,16.2619232 57.4072618,14.8854862 57.0426555,12.561748 C56.4316988,8.66740551 57.3214154,5.12725197 60.2172382,2.25834055 C61.508311,0.979228346 63.113061,0.400295276 64.8690551,0.15867126 C66.9156732,-0.12307874 68.9366339,-0.0711850394 70.8986594,0.662753937 C71.1384508,0.752362205 71.3702362,0.863673228 71.6034685,0.969968504 C73.4419331,1.80856299 73.676998,3.38408661 73.4061476,4.94639567 C73.3642854,5.18801969 73.2220118,5.20538189 73.0289055,5.20393504 C72.3376969,5.19882283 71.6464882,5.20190945 70.9551831,5.20190945 L70.9551831,5.18203937" id="Fill-3"></path>
                        <path d="M8.95272441,0.499356299 C10.6398484,0.499356299 12.326876,0.509677165 14.0138071,0.491929134 C14.4223012,0.487588583 14.6183976,0.511799213 14.4934862,1.02099409 C14.3182244,1.73515945 14.2257224,2.47170276 14.1330276,3.20313386 C14.0916476,3.52915748 13.9629744,3.60940945 13.645439,3.60709449 C11.6373071,3.59195079 9.62859646,3.61182087 7.62046457,3.58915354 C7.2123563,3.58452362 7.07384449,3.70123622 7.01018307,4.10500394 C6.87533661,4.95883858 6.6833878,5.80486024 6.48815945,6.64779528 C6.40250591,7.01761024 6.49819094,7.11377756 6.87716929,7.10991929 C8.70868898,7.09149606 10.540498,7.11194488 12.3719213,7.0934252 C12.769998,7.08937402 12.8552657,7.17377362 12.7520571,7.5727185 C12.5474724,8.36308465 12.3947815,9.16772638 12.2414154,9.97043898 C12.1839272,10.2708051 12.0652854,10.383563 11.7391654,10.3804764 C9.90764567,10.3628248 8.07574016,10.3852028 6.24431693,10.3615709 C5.84923031,10.3564587 5.69017323,10.4621752 5.61705906,10.8571654 C5.3049252,12.5438071 4.94658858,14.2218642 4.63783071,15.9091811 C4.56037598,16.3331083 4.41549803,16.4829055 3.96456299,16.467376 C2.84113189,16.4286004 1.71557874,16.4550295 0.590797244,16.4543543 C0.0605748031,16.454065 0.010996063,16.4058366 0.117966535,15.8750354 C0.406082677,14.4451614 0.707220472,13.0177953 1.00170276,11.5890787 C1.72995079,8.05712402 2.46273228,4.52613386 3.17728346,0.99138189 C3.25425591,0.61076378 3.38582283,0.480354331 3.7952815,0.487202756 C5.51404331,0.51594685 7.23348031,0.499356299 8.95272441,0.499356299" id="Fill-4"></path>
                        <path d="M17.2588996,16.4545472 C16.6160157,16.4545472 15.9726496,16.441815 15.330248,16.4599488 C15.0165709,16.4689193 14.9073819,16.4089232 14.9839685,16.058689 C16.0843465,11.031752 17.1744035,6.00259646 18.2560689,0.971608268 C18.3315945,0.620312992 18.4532264,0.47746063 18.8459016,0.487781496 C20.0506457,0.519612205 21.2567402,0.504082677 22.4621594,0.495883858 C22.7431378,0.493954724 22.8919705,0.491350394 22.8112362,0.878238189 C21.7532028,5.94751969 20.7142677,11.0207559 19.6787087,16.0946673 C19.6236319,16.3646496 19.5202303,16.4694016 19.2356831,16.4608169 C18.5772697,16.4409469 17.9178917,16.4545472 17.2588996,16.4545472" id="Fill-5"></path>
                    </g>
                </g>
            </g>
        </g>
    </g>
</svg>