<?xml version="1.0" encoding="UTF-8" standalone="no"?>
<svg width="59px" height="43px" viewBox="0 0 59 43" version="1.1" xmlns="http://www.w3.org/2000/svg" xmlns:xlink="http://www.w3.org/1999/xlink" xmlns:sketch="http://www.bohemiancoding.com/sketch/ns">
    <!-- Generator: Sketch 3.3.3 (12072) - http://www.bohemiancoding.com/sketch -->
    <title>Natura</title>
    <desc>Created with Sketch.</desc>
    <defs></defs>
    <g id="4---Interface" stroke="none" stroke-width="1" fill="none" fill-rule="evenodd" sketch:type="MSPage">
        <g id="1---Home-Desktop-Copy" sketch:type="MSArtboardGroup" transform="translate(-634.000000, -3510.000000)" fill="#7D7D7D">
            <g id="Call-to-actio-e-clientes" sketch:type="MSLayerGroup" transform="translate(245.000000, 3355.000000)">
                <g id="Clientes" sketch:type="MSShapeGroup">
                    <g id="Natura" transform="translate(389.000000, 155.000000)">
                        <g id="Fill-1-+-Fill-2">
                            <path d="M29.0956533,10.7104554 C28.6614133,13.5315625 26.29158,13.7292857 24.87558,11.0490804 C19.2969333,1.34298214 11.0298533,7.18330357 19.8460267,15.2807411 C21.40638,16.4943393 21.14678,17.4533929 19.2391133,17.3409018 C9.78692,13.9826786 11.6367667,19.5976339 21.32024,21.9111875 C22.7653467,21.7138482 23.83482,22.5884375 22.6209933,23.4630268 C21.34856,25.3250804 28.7196267,26.5947321 30.74254,23.7455982 C38.8082333,25.6640893 43.17266,21.6574107 38.51874,21.4880982 C36.55286,21.2059107 37.2758067,19.7389196 38.7791267,19.5696071 C48.49092,16.3530536 48.4039933,8.81999107 38.9813,14.4629732 C36.6685,15.9299643 34.9925067,15.1962768 36.0033733,13.2209643 C42.2184333,4.05159821 31.4945933,-1.42207143 29.0956533,10.7104554 L29.0956533,10.7104554 Z M31.6684467,24.8175268 C29.44218,26.9621518 19.2969333,26.3129286 20.0773067,22.644875 C8.48616667,18.9487946 7.70579333,11.2744464 16.6372133,14.829625 C7.53194,3.82584821 18.8918,-3.25571429 26.5802867,8.90445536 C28.2865667,-4.55339286 44.7043,-1.8731875 39.7325667,11.6130714 C49.18476,5.9985 52.7975267,13.8421607 41.1780667,20.2184464 C46.90146,20.3597321 38.3739933,26.8765357 31.6684467,24.8175268 L31.6684467,24.8175268 Z" id="Fill-1"></path>
                            <path d="M41.12064,32.8865536 L38.9518,32.8865536 L38.9518,38.0780357 C38.1136067,41.9710714 33.5182933,41.2661786 33.2000867,38.0780357 L33.17098,32.8305 L30.8011467,32.8305 L30.8294667,37.8806964 C31.0029267,42.3100804 40.05038,43.3259554 41.12064,38.3602232 L41.12064,32.8865536 L41.12064,32.8865536 Z M0.39294,41.3506429 L2.67624,41.3506429 L2.67624,36.1871875 C2.79148667,32.5475446 8.48616667,32.6331607 8.31270667,36.4413482 L8.31270667,41.4351071 L10.7116467,41.4351071 L10.7116467,36.2440089 C9.61306667,31.3911518 1.80894,31.3911518 0.422046667,35.6512232 L0.39294,41.3506429 L0.39294,41.3506429 Z M20.2507667,41.5203393 L22.50496,41.5203393 L22.50496,36.6102768 C22.1293267,30.4317143 9.32436,31.7865982 12.9666267,39.6579018 C14.3248067,41.8021429 17.7066867,42.2252321 19.6430667,40.8991429 L19.6430667,40.0809911 C17.59144,40.532875 16.0594067,41.0120179 14.93172,38.6416429 C12.9371267,32.9710179 20.3078,31.7865982 20.1925533,36.6390714 L20.2507667,41.5203393 L20.2507667,41.5203393 Z M56.3528667,41.8581964 L58.6078467,41.8581964 L58.6078467,36.9492857 C58.2322133,30.7707232 45.42646,32.1244554 49.0687267,39.9965268 C50.4276933,42.1407679 53.8095733,42.5354464 55.7463467,41.2377679 L55.7463467,40.4196161 C53.6943267,40.8715 52.1615067,41.3506429 51.0346067,38.9806518 C49.03962,33.3096429 56.4106867,32.1244554 56.29544,36.9773125 L56.3528667,41.8581964 L56.3528667,41.8581964 Z M48.2588533,32.9994286 L48.2588533,33.7611429 C46.52504,33.6198571 45.6011,34.3255179 45.4850667,35.8769732 L45.34032,41.6892679 L43.2300867,41.6892679 L43.2300867,35.7925089 C43.8078933,33.2535893 45.7163467,32.4070268 48.2588533,32.9994286 L48.2588533,32.9994286 Z M27.0145267,32.7452679 L29.12476,32.7452679 L29.0661533,34.2126429 L27.1297733,34.2126429 L27.1297733,40.0809911 C27.2458067,41.6608571 28.2283533,42.1127411 29.58732,42.0278929 L29.58732,42.8176339 C26.9850267,43.1278482 25.0777533,42.4793929 24.67262,39.6579018 L24.67262,28.9366964 L27.0145267,28.9366964 L27.0145267,32.7452679 L27.0145267,32.7452679 Z" id="Fill-2"></path>
                        </g>
                    </g>
                </g>
            </g>
        </g>
    </g>
</svg>