<?xml version="1.0" encoding="UTF-8" standalone="no"?>
<svg width="56px" height="23px" viewBox="0 0 56 23" version="1.1" xmlns="http://www.w3.org/2000/svg" xmlns:xlink="http://www.w3.org/1999/xlink" xmlns:sketch="http://www.bohemiancoding.com/sketch/ns">
    <!-- Generator: Sketch 3.3.3 (12072) - http://www.bohemiancoding.com/sketch -->
    <title>USP</title>
    <desc>Created with Sketch.</desc>
    <defs>
        <path id="path-1" d="M0.00770642202,0.127138889 L55.9744404,0.127138889 L55.9744404,22.9923333 L0.00770642202,22.9923333"></path>
    </defs>
    <g id="4---Interface" stroke="none" stroke-width="1" fill="none" fill-rule="evenodd" sketch:type="MSPage">
        <g id="1---Home-Desktop-Copy" sketch:type="MSArtboardGroup" transform="translate(-820.000000, -3519.000000)">
            <g id="Call-to-actio-e-clientes" sketch:type="MSLayerGroup" transform="translate(245.000000, 3355.000000)">
                <g id="Clientes">
                    <g id="USP" transform="translate(575.000000, 164.000000)">
                        <mask id="mask-2" sketch:name="Clip 2" fill="white">
                            <use xlink:href="#path-1"></use>
                        </mask>
                        <g id="Clip-2"></g>
                        <path d="M4.82434862,23 C4.71517431,22.9612833 4.71517431,22.9612833 4.27089908,22.9069778 C2.65768807,22.4649944 1.56658716,21.6974333 0.724788991,20.3716111 C0.428605505,19.7746333 0.264972477,19.2472944 0.0856697248,18.6735722 C0.054587156,18.4254278 0.0312110092,18.1850778 0.00783486239,17.9447278 C0,12.0054889 0,6.06637778 0,0.127138889 L18.4010092,0.127138889 L18.4010092,1.63133889 C15.8446606,1.63133889 13.2961468,1.63133889 10.7475046,1.63900556 C10.7396697,6.97347222 10.7396697,12.3157333 10.7396697,17.6578667 L9.22779817,17.6578667 C9.2199633,12.3157333 9.2199633,6.97347222 9.2199633,1.63900556 L1.54321101,1.63900556 L1.54321101,18.1463611 C1.61333945,18.4254278 1.68346789,18.7122889 1.75359633,18.99915 C2.40825688,20.4257889 3.33572477,21.2089389 4.98014679,21.4803389 L14.9561101,21.4803389 C16.5849908,21.2632444 17.7151376,20.263 18.2606239,18.7433389 C18.3230459,18.3865833 18.377633,17.9757778 18.4010092,17.6578667 L19.9440917,17.6578667 C20.0375963,19.7667111 21.5106789,21.4104444 23.7786789,21.4958 L23.7786789,23 C22.1887156,23 21.0274862,22.3719722 19.9285505,21.4027778 C19.6712844,21.0770722 19.4141468,20.7592889 19.1647156,20.44125 C18.2684587,21.79825 17.2007339,22.4649944 15.6808991,22.9069778 C15.4938899,22.9302333 15.3068807,22.9536167 15.1198716,22.9845389 C11.6828073,22.9845389 8.25357798,22.9922056 4.82434862,23" id="Fill-1" fill="#646464" sketch:type="MSShapeGroup" mask="url(#mask-2)"></path>
                        <path d="M23.0226789,23 L23.0226789,21.4725444 C26.2101835,21.4725444 29.397945,21.4725444 32.5934128,21.4803389 C34.1910826,21.2865 35.4613578,20.1621833 35.9134679,18.6425222 C36.1395229,17.3942611 36.0069725,16.0761056 35.9991376,14.8976111 C33.0220183,11.9357222 30.0524771,8.98162778 27.0831927,6.02753333 L27.0831927,5.97322778 C27.2389908,5.82602778 28.0574128,4.95765 28.1821284,4.95765 C31.3073394,8.07453333 34.4326789,11.1914167 37.5578899,14.3083 L37.5578899,17.9447278 C37.4877615,18.7433389 37.254,19.5497444 36.8720183,20.3173056 C36.7083853,20.5498611 36.5446239,20.7824167 36.3811193,21.0228944 C35.6017431,21.8680167 34.8534495,22.3719722 33.8013945,22.7751111 C33.4507523,22.8450056 33.0999817,22.9147722 32.749211,22.9845389 C29.5069908,22.9845389 26.2647706,22.9922056 23.0226789,23" id="Fill-3" fill="#646464" sketch:type="MSShapeGroup" mask="url(#mask-2)"></path>
                        <path d="M37.5735596,23 L37.5735596,21.4958 L45.2347706,21.4958 L45.2347706,5.46927222 L46.7701468,5.46927222 L46.7701468,13.8431889 L54.4624404,13.8431889 C54.4547339,11.0518833 54.4468991,8.26057778 54.4468991,5.46927222 C54.3455596,4.18229444 53.9714128,3.32937778 53.043945,2.50751111 C52.4049541,2.09657778 52.0309358,1.91040556 51.3839817,1.71656667 C51.1190092,1.68564444 50.8617431,1.66238889 50.6046055,1.63900556 L41.4001835,1.63900556 C40.0439817,1.73215556 39.2335229,2.15075556 38.3451009,3.14320556 C38.173633,3.43019444 38.0021651,3.72485 37.8385321,4.01937778 C37.6747706,4.48461667 37.5969358,4.9266 37.5735596,5.46927222 L36.0302202,5.46927222 C35.9602202,3.53867778 34.791156,2.18180556 32.9831009,1.71656667 C32.718,1.68564444 32.4530275,1.66238889 32.1957615,1.63900556 L22.9993028,1.63900556 C22.1497982,1.69331111 21.6664771,1.84843333 20.9650642,2.23611111 C20.0375963,2.91844444 19.6480367,3.43798889 19.2738899,4.56217778 C19.1257982,5.73287778 19.1725505,6.94242222 19.1803853,8.20627222 C22.1575046,11.1836222 25.1347523,14.1687667 28.1197064,17.1539111 C27.9014862,17.3708778 27.2546606,18.1151833 27.0207706,18.1696167 C23.9032661,15.0604 20.7858899,11.9511833 17.6683853,8.84988889 C17.6605505,7.63255 17.6605505,6.42300556 17.6605505,5.21346111 C17.7774312,4.08914444 18.0268624,3.29053333 18.6347706,2.36785 C19.4687339,1.35993889 20.2013578,0.824933333 21.4327156,0.367488889 C21.900367,0.259005556 22.3835596,0.189238889 22.9135046,0.134933333 L32.2269725,0.134933333 C32.4842385,0.150394444 32.7413761,0.165855556 33.0064771,0.189238889 C34.5729358,0.468305556 35.8822569,1.31342778 36.8097248,2.70135 C37.6201835,1.61587778 38.1033761,1.13505 39.3193211,0.553533333 C40.0207339,0.282261111 40.5974312,0.196905556 41.4001835,0.134933333 L50.6046055,0.134933333 C50.869578,0.150394444 51.1423853,0.165855556 51.4151927,0.189238889 C52.2880734,0.344233333 53.106367,0.677605556 53.9012844,1.25912222 C54.0882936,1.42970556 54.2832661,1.60028889 54.4779817,1.77866667 C55.3353211,2.78657778 55.8732294,3.79461667 55.9588991,5.21346111 C55.9588991,8.60174444 55.9666055,11.9900278 55.9744404,15.3783111 L46.7701468,15.3783111 L46.7701468,23 L37.5735596,23" id="Fill-4" fill="#646464" sketch:type="MSShapeGroup" mask="url(#mask-2)"></path>
                    </g>
                </g>
            </g>
        </g>
    </g>
</svg>