<?xml version="1.0" encoding="UTF-8" standalone="no"?>
<svg width="43px" height="43px" viewBox="0 0 43 43" version="1.1" xmlns="http://www.w3.org/2000/svg" xmlns:xlink="http://www.w3.org/1999/xlink" xmlns:sketch="http://www.bohemiancoding.com/sketch/ns">
    <!-- Generator: Sketch 3.3.3 (12072) - http://www.bohemiancoding.com/sketch -->
    <title>Claro_Novo</title>
    <desc>Created with Sketch.</desc>
    <defs></defs>
    <g id="4---Interface" stroke="none" stroke-width="1" fill="none" fill-rule="evenodd" sketch:type="MSPage">
        <g id="1---Home-Desktop-Copy" sketch:type="MSArtboardGroup" transform="translate(-544.000000, -3510.000000)">
            <g id="Call-to-actio-e-clientes" sketch:type="MSLayerGroup" transform="translate(245.000000, 3355.000000)">
                <g id="Clientes" sketch:type="MSShapeGroup">
                    <g id="Claro_Novo" transform="translate(299.000000, 155.000000)">
                        <path d="M21.5125987,0.0246106383 C33.318518,0.0246106383 42.947414,9.67399362 42.947414,21.5050319 C42.947414,33.3360702 33.318518,42.9854532 21.5125987,42.9854532 C9.70667941,42.9854532 0.0777834395,33.3360702 0.0777834395,21.5050319 C0.0777834395,9.67399362 9.70667941,0.0246106383 21.5125987,0.0246106383" id="Fill-1" fill="#646464"></path>
                        <path d="M37.6399724,13.4835191 L38.8875202,14.7337213 L34.6709639,18.9952957 C34.2508238,18.5741702 33.8493992,18.1718915 33.42369,17.7450936 L37.6399724,13.4835191 L37.6399724,13.4835191 Z M30.3409278,18.8782809 C32.2648811,18.8782809 33.8344268,20.4510745 33.8344268,22.3792128 C33.8344268,24.3073511 32.2648811,25.8801447 30.3409278,25.8801447 C28.4167919,25.8801447 26.8473376,24.3073511 26.8473376,22.3792128 C26.8473376,20.4510745 28.4167919,18.8782809 30.3409278,18.8782809 L30.3409278,18.8782809 Z M30.3408365,20.3401894 C31.432087,20.3401894 32.3222144,21.2561809 32.3222144,22.3792128 C32.3222144,23.5021532 31.432087,24.4182362 30.3408365,24.4182362 C29.249586,24.4182362 28.3594586,23.5021532 28.3594586,22.3792128 C28.3594586,21.2561809 29.249586,20.3401894 30.3408365,20.3401894 L30.3408365,20.3401894 Z M11.9760934,22.6930213 C11.9063439,22.9130532 11.822535,23.1221064 11.7277707,23.3175277 C11.6069873,23.5661957 11.4621019,23.8055319 11.2958535,24.033066 C10.454569,25.1856489 9.11307856,25.9158255 7.65007431,25.9158255 L7.64806582,25.9158255 C6.3901104,25.9152766 5.24800849,25.3857362 4.42169639,24.5331468 C3.60232272,23.6871447 3.09344374,22.5226681 3.0923482,21.2436468 L3.0923482,21.2369681 C3.09289597,19.956483 3.60232272,18.7903596 4.42315711,17.944083 C5.24864756,17.092866 6.38892357,16.5638745 7.64596603,16.5627766 L7.65546072,16.5627766 C8.14151592,16.5633255 8.61579406,16.6436532 9.0617707,16.7923234 C9.27330149,16.8624957 9.48565393,16.9528872 9.69508493,17.0602043 L9.6956327,17.0591064 C10.6965924,17.5730021 11.5024544,18.4577043 11.9107261,19.5713128 L9.98841614,19.5713128 C9.71553503,19.1564085 9.34241189,18.8229298 8.91259448,18.6020745 L8.90912527,18.5985979 C8.79098938,18.537666 8.66071125,18.4834128 8.52130361,18.4369362 C8.24586624,18.3450809 7.95372187,18.2954021 7.65546072,18.2951277 L7.64596603,18.2951277 C6.87269639,18.2960426 6.16908493,18.6225681 5.6592017,19.1486319 C5.14228875,19.6813745 4.82129512,20.421066 4.82102123,21.2369681 L4.82102123,21.2436468 C4.82184289,22.0581766 5.14201486,22.7961298 5.65774098,23.3285064 C6.16853715,23.8554851 6.87324416,24.1832 7.64806582,24.1834745 L7.65007431,24.1834745 C8.55097452,24.1834745 9.38102972,23.7284064 9.90478981,23.0109468 C9.97654777,22.9127787 10.0442887,22.8059191 10.105913,22.6930213 L11.9760934,22.6930213 L11.9760934,22.6930213 Z M35.602448,20.3237213 L39.9328493,20.3237213 L39.9328493,22.0915702 L35.602448,22.0915702 L35.602448,20.3237213 Z M29.9890764,12.448134 L31.753172,12.448134 L31.753172,16.7877489 L29.9890764,16.7877489 L29.9890764,12.448134 Z M12.7764777,16.8113532 L14.5227707,16.8113532 L14.5227707,25.6430043 L12.7764777,25.6430043 L12.7764777,16.8113532 Z M17.287552,23.8017809 C17.2918429,24.0520957 17.383138,24.2421191 17.5618025,24.3743213 C17.7403758,24.5045106 17.9813036,24.5706574 18.2844034,24.5706574 C18.7597771,24.5498894 19.1150064,24.3971021 19.3498174,24.1078128 C19.5843546,23.8185234 19.7027643,23.5272213 19.7027643,23.2335404 L19.7027643,22.411234 C19.2976879,22.6407809 18.8076157,22.7851511 18.2345563,22.8451681 C17.6594883,22.9072894 17.3436985,23.2254894 17.287552,23.8017809 L17.287552,23.8017809 Z M15.620138,23.9239191 C15.636845,23.1405872 15.8443588,22.5972319 16.2471529,22.2955 C16.6482123,21.9917553 17.1171953,21.8078617 17.6551062,21.7417149 C18.193017,21.6755681 18.6623652,21.611434 19.0631507,21.5516915 C19.4659448,21.4896617 19.6777495,21.3140936 19.7027643,21.0248043 C19.7107983,20.7727511 19.6446093,20.5784277 19.5010934,20.438083 C19.3599512,20.2994766 19.0858832,20.2293043 18.6808068,20.2293043 C18.2512633,20.2293043 17.9417728,20.3056064 17.7571741,20.4565638 C17.5741274,20.6072468 17.4828323,20.8388064 17.4868493,21.1509681 L15.8693737,21.1509681 C15.8653567,20.4481468 16.0874777,19.8984787 16.5381104,19.5017809 C16.9884692,19.1029787 17.7029448,18.9006043 18.6808068,18.8922787 C19.5033758,18.8963043 20.1594225,19.0533915 20.6474862,19.3614362 C21.1375584,19.6712191 21.3867941,20.1011277 21.3992102,20.6549128 L21.3992102,24.7173149 C21.3951932,24.8703766 21.4179257,25.000566 21.4697813,25.1079745 C21.5196285,25.2133702 21.6129321,25.3000106 21.7457665,25.3640532 L21.7457665,25.6430043 L19.952,25.6430043 C19.8791465,25.5500511 19.8251911,25.4322128 19.7940594,25.2895809 C19.7606454,25.1452106 19.737913,24.996266 19.7275966,24.8434787 C19.5656391,25.1348723 19.3083694,25.374483 18.9571571,25.5645064 C18.6062187,25.7527 18.17631,25.8537957 17.6635053,25.8661468 C16.9783355,25.8578213 16.4675393,25.6882915 16.129017,25.3580149 C15.7904034,25.0270979 15.620138,24.5498894 15.620138,23.9239191 L15.620138,23.9239191 Z M24.5151125,22.2169106 L24.5151125,25.6430043 L22.7686369,25.6430043 L22.7686369,19.1896191 L24.3863864,19.1896191 L24.3863864,20.3572064 C24.5439618,20.0081745 24.7747558,19.6919872 25.0778556,19.4107489 C25.3789469,19.1318894 25.8627197,18.9832191 26.5293567,18.9667511 L26.5293567,20.7291106 C26.0225775,20.6961745 25.5656454,20.7582957 25.1608429,20.9130043 C24.7540318,21.0680787 24.5399448,21.504117 24.5151125,22.2169106 L24.5151125,22.2169106 Z" id="Fill-254" fill="#FFFFFF"></path>
                    </g>
                </g>
            </g>
        </g>
    </g>
</svg>