<?xml version="1.0" encoding="UTF-8" standalone="no"?>
<svg width="66px" height="49px" viewBox="0 0 66 49" version="1.1" xmlns="http://www.w3.org/2000/svg" xmlns:xlink="http://www.w3.org/1999/xlink" xmlns:sketch="http://www.bohemiancoding.com/sketch/ns">
    <!-- Generator: Sketch 3.3.3 (12072) - http://www.bohemiancoding.com/sketch -->
    <title>Imported Layers</title>
    <desc>Created with Sketch.</desc>
    <defs></defs>
    <g id="4---Interface" stroke="none" stroke-width="1" fill="none" fill-rule="evenodd" sketch:type="MSPage">
        <g id="1---Home-Desktop-Copy" sketch:type="MSArtboardGroup" transform="translate(-431.000000, -3514.000000)" fill="#646464">
            <g id="Call-to-actio-e-clientes" sketch:type="MSLayerGroup" transform="translate(245.000000, 3355.000000)">
                <g id="Clientes" sketch:type="MSShapeGroup">
                    <g id="Imported-Layers" transform="translate(186.000000, 159.000000)">
                        <path d="M25.9476921,0.0280837667 C27.4567247,0.372885237 25.9082356,2.065547 25.8286051,2.24425288 C25.5355508,2.89998818 24.0222138,3.77514259 23.4436377,2.24425288 C23.2230399,1.66201759 23.3553986,0.928458767 23.8008986,0.566723473 C24.0874964,0.334333767 25.3149529,-0.116754469 25.9476921,0.0280837667 L25.9476921,0.0280837667 Z M37.3965399,1.88503965 C36.4187356,1.74416465 35.9176377,2.24425288 35.3096486,2.24425288 C34.2134747,2.24425288 34.3551595,4.28531906 34.3551595,4.999422 C34.7687356,5.00050288 35.2472356,10.0936205 34.3551595,10.0907382 C34.3544421,11.3769882 31.078116,15.5416279 30.5386377,16.6790764 C30.1781486,17.4414588 27.5510616,19.3964146 27.3788877,17.457672 C27.3627464,17.2703191 26.2314203,15.3095985 25.9476921,14.8819294 C25.5832573,14.8412161 22.4866377,15.3132014 22.4891486,15.9602896 C21.8029638,15.9602896 21.7728334,16.7316794 21.7735508,15.2411426 C21.2279747,13.9001279 20.1852464,14.7352896 19.9251921,13.9833558 C19.8340834,13.721422 19.5248877,13.9001279 19.2095943,13.384547 C18.6966595,12.5457823 16.0441051,14.4355249 16.1682138,15.0617161 C14.8284856,15.3978705 14.1107356,13.8482455 13.1867356,13.384547 C13.1867356,12.7662823 13.0138443,9.60938524 12.6813334,8.76917935 C12.4356269,8.14911318 10.9452464,5.02176024 10.4746377,4.55517935 C9.92977904,4.0136573 7.62731164,2.64381906 7.22377904,2.96267935 C4.93852904,2.96267935 6.36936599,6.43987788 5.55440947,6.43663524 C2.09048556,7.97076759 -1.19516662,12.8084367 0.426137731,17.0980985 C1.15357251,19.0217088 2.22894208,20.6271794 4.48119208,20.7522014 C4.48334425,21.2501279 9.33362686,20.3306573 9.19158338,19.6140323 C10.0194529,19.6147529 12.4725725,16.8422896 12.4714964,16.1400764 C12.8162029,16.1400764 13.7416377,16.6725911 14.3015616,17.1366499 C15.2474421,17.9220911 13.7821703,19.0631426 14.1412247,19.9736058 C14.4902356,20.8574073 18.3142899,18.8574146 18.3150073,19.2544588 C18.9326812,19.2566205 16.9146595,24.9953852 16.4666486,25.3041573 C15.8098769,25.7563264 15.4432899,33.872672 16.4666486,33.8687088 C16.4666486,35.6352308 19.1819747,34.5572308 19.8057464,33.1502823 C20.0837356,32.5248117 21.5461377,28.5727455 21.5949203,28.4185396 C21.7477247,27.9371867 21.9353225,25.5084441 21.9525399,25.3041573 C22.1559203,22.921172 21.7735508,21.0299882 21.7735508,18.7154588 C21.6017356,17.6594367 22.2624529,17.3049073 23.0479964,17.2569882 C23.7435073,17.2151941 24.0390725,18.0247749 24.337866,18.535672 C24.6775508,19.1168264 25.1524638,19.5344073 25.4114421,19.9736058 C25.563529,20.2319367 28.0639964,20.4293779 28.6906377,19.9736058 C29.5540182,19.3456132 32.4838443,17.4000249 32.9246812,16.4992896 C33.1208877,16.0982823 35.2762899,12.4870544 35.6077247,12.4859735 C35.2845399,11.8352823 36.5005182,12.4038264 36.5026703,13.384547 C36.7907029,13.3856279 38.6297356,16.0615323 38.7086486,16.4992896 C38.8266595,17.1521426 41.4010182,18.7154588 41.4515943,18.7154588 L43.2404095,18.7154588 C43.2404095,18.7021279 45.3563551,17.2764441 45.268116,16.9190323 C45.9334964,16.6509735 47.2219312,19.2472529 47.6527247,19.074672 C47.2807573,19.6987014 50.3870616,19.8222823 50.5750182,19.2544588 C51.7303769,19.834172 52.8122029,14.5227161 52.9004421,14.5227161 C52.9004421,12.5706426 54.7480834,13.1957529 54.7495182,11.5877602 C54.3517247,11.5877602 50.7536486,11.4584146 50.7536486,12.1267602 C49.8816595,12.1282014 49.620529,15.8046426 49.620529,16.5590985 C48.6183334,16.5590985 47.4120399,13.6241426 46.7588551,13.6241426 C46.7567029,12.6445029 44.373529,12.8412235 44.373529,13.2051205 C43.5262899,13.2051205 43.1166595,14.5248779 43.6582899,14.5227161 C43.6503986,18.5201794 40.8902356,15.0267676 40.199029,13.6241426 C39.8575508,12.9294955 38.1716812,8.37141465 38.1716812,7.39537788 C37.6157029,7.39681906 38.1379638,2.06626759 37.3965399,2.06410583 L37.3965399,1.88503965 L37.3965399,1.88503965 Z M6.62726817,8.11416465 C7.01501817,8.11560583 8.21126817,11.0527235 8.29735512,11.4079735 C8.38344208,11.7632235 10.6633116,14.7021426 10.6823225,14.7021426 C10.5302356,15.6198117 9.0502573,18.5374735 8.1180073,18.535672 C8.1180073,19.0415249 5.37721382,19.0465691 5.37577904,18.535672 C4.43492034,18.535672 2.6400073,15.0235249 2.85235512,13.7405176 C3.16262686,11.8623044 4.47652904,8.87006171 6.09101817,7.93401759 C6.09209425,7.63028965 6.62834425,7.5477823 6.62726817,8.11416465 L6.62726817,8.11416465 Z M58.9229421,12.9053558 C58.6094421,12.6974661 57.2898008,13.4576867 56.7765073,13.6241426 C55.7728769,13.9487676 56.1437682,14.9276867 56.4181703,15.0617161 C56.9863443,15.3387823 59.6980834,18.2236573 59.6980834,18.535672 L61.3086269,18.535672 C61.3064747,17.953797 62.0966812,19.1110617 61.4872573,19.3142676 C61.4865399,20.1202455 61.3086269,20.3072382 61.3086269,21.1114146 C61.0474964,21.1121352 60.2163986,28.6422823 59.8774312,29.1373264 C59.6424856,29.4792455 58.8400834,34.1147896 58.7439529,34.4678779 C58.3909964,35.7660176 56.5863986,44.8926279 55.643029,44.8901058 C55.6412356,45.5807896 54.3262573,44.3673191 54.5701703,43.6323191 C54.3165725,43.6323191 53.0984421,39.3822896 53.6163986,39.3794073 C53.869279,38.1068485 50.9279747,38.9275985 50.9329964,40.3374294 C51.1561051,40.3374294 51.3594856,44.8901058 51.8275834,44.8901058 C51.8275834,45.534672 52.9678769,48.1853558 53.6163986,48.1839146 C53.980116,49.2961426 57.4924638,48.1777896 57.4924638,47.0457455 C58.3529747,47.5638485 60.9850834,36.8299661 61.3086269,35.1866646 C61.3717573,34.8634808 62.6458443,29.2414514 62.7394638,28.9575396 C63.0213986,28.0989588 64.7693225,18.8956058 64.9454421,18.8948852 C64.9454421,17.8529146 66.214866,14.6592676 65.6613986,14.1033338 C65.658529,12.9831794 62.2003443,13.7596132 62.2024964,15.4209294 C62.1415182,15.4414661 61.4843877,16.4953264 61.4872573,15.7801426 C61.2228986,15.8471573 59.5560399,13.2339441 59.2809203,13.0249735 C59.1295508,12.9107602 59.1295508,13.0422676 58.9229421,12.9053558 L58.9229421,12.9053558 Z M18.6729856,16.3195029 C19.0901486,16.7388852 18.9312464,17.0649514 18.5553334,17.3038264 C18.006529,17.6533117 16.9942899,17.8168852 16.6456377,17.8168852 C16.6463551,17.0743191 17.1861921,16.9103852 17.6252356,16.7659073 C17.7611812,16.7215911 18.6715508,15.9271426 18.6729856,16.3195029 L18.6729856,16.3195029 Z M19.3882247,25.1240102 C19.3419529,25.291547 18.988279,30.4574441 18.3150073,30.4545617 L18.3150073,30.7539661 C16.6528116,30.7539661 19.0298877,24.1072602 19.0306051,23.2674146 C19.7239638,23.2684955 19.5546595,24.525922 19.3882247,25.1240102 L19.3882247,25.1240102 Z"></path>
                    </g>
                </g>
            </g>
        </g>
    </g>
</svg>